<svg xmlns="http://www.w3.org/2000/svg" xmlns:xlink="http://www.w3.org/1999/xlink" version="1.1" width="256" height="256" viewBox="0 0 256 256" xml:space="preserve">

<defs>
</defs>
<g style="stroke: none; stroke-width: 0; stroke-dasharray: none; stroke-linecap: butt; stroke-linejoin: miter; stroke-miterlimit: 10; fill: none; fill-rule: nonzero; opacity: 1;" transform="translate(1.4065934065934016 1.4065934065934016) scale(2.81 2.81)" >
	<path d="M 78.667 59.979 H 11.333 V 23.375 c 0 -1.329 1.077 -2.406 2.406 -2.406 h 62.523 c 1.329 0 2.406 1.077 2.406 2.406 V 59.979 z" style="stroke: none; stroke-width: 1; stroke-dasharray: none; stroke-linecap: butt; stroke-linejoin: miter; stroke-miterlimit: 10; fill: rgb(174,229,244); fill-rule: nonzero; opacity: 1;" transform=" matrix(1 0 0 1 0 0) " stroke-linecap="round" />
	<path d="M 76.262 72.378 H 13.738 c -1.329 0 -2.406 -1.077 -2.406 -2.406 v -9.993 h 67.335 v 9.993 C 78.667 71.301 77.59 72.378 76.262 72.378 z" style="stroke: none; stroke-width: 1; stroke-dasharray: none; stroke-linecap: butt; stroke-linejoin: miter; stroke-miterlimit: 10; fill: rgb(176,182,188); fill-rule: nonzero; opacity: 1;" transform=" matrix(1 0 0 1 0 0) " stroke-linecap="round" />
	<polygon points="56.61,83.3 33.39,83.3 35.26,72.38 54.74,72.38 " style="stroke: none; stroke-width: 1; stroke-dasharray: none; stroke-linecap: butt; stroke-linejoin: miter; stroke-miterlimit: 10; fill: rgb(201,207,212); fill-rule: nonzero; opacity: 1;" transform="  matrix(1 0 0 1 0 0) "/>
	<rect x="27.66" y="83.3" rx="0" ry="0" width="34.67" height="5.7" style="stroke: none; stroke-width: 1; stroke-dasharray: none; stroke-linecap: butt; stroke-linejoin: miter; stroke-miterlimit: 10; fill: rgb(176,182,188); fill-rule: nonzero; opacity: 1;" transform=" matrix(1 0 0 1 0 0) "/>
	<path d="M 78.667 60.979 H 11.333 c -0.552 0 -1 -0.447 -1 -1 V 23.375 c 0 -1.877 1.528 -3.405 3.406 -3.405 h 62.523 c 1.878 0 3.405 1.528 3.405 3.405 v 36.604 C 79.667 60.532 79.22 60.979 78.667 60.979 z M 12.333 58.979 h 65.334 V 23.375 c 0 -0.775 -0.631 -1.405 -1.405 -1.405 H 13.738 c -0.775 0 -1.406 0.63 -1.406 1.405 V 58.979 z" style="stroke: none; stroke-width: 1; stroke-dasharray: none; stroke-linecap: butt; stroke-linejoin: miter; stroke-miterlimit: 10; fill: rgb(0,0,0); fill-rule: nonzero; opacity: 1;" transform=" matrix(1 0 0 1 0 0) " stroke-linecap="round" />
	<path d="M 76.262 73.378 H 13.738 c -1.878 0 -3.406 -1.528 -3.406 -3.406 v -9.992 c 0 -0.553 0.448 -1 1 -1 h 67.334 c 0.553 0 1 0.447 1 1 v 9.992 C 79.667 71.85 78.14 73.378 76.262 73.378 z M 12.333 60.979 v 8.992 c 0 0.775 0.631 1.406 1.406 1.406 h 62.523 c 0.774 0 1.405 -0.631 1.405 -1.406 v -8.992 H 12.333 z" style="stroke: none; stroke-width: 1; stroke-dasharray: none; stroke-linecap: butt; stroke-linejoin: miter; stroke-miterlimit: 10; fill: rgb(0,0,0); fill-rule: nonzero; opacity: 1;" transform=" matrix(1 0 0 1 0 0) " stroke-linecap="round" />
	<path d="M 56.609 84.301 H 33.391 c -0.295 0 -0.575 -0.13 -0.765 -0.355 s -0.271 -0.523 -0.221 -0.813 l 1.873 -10.923 c 0.083 -0.48 0.499 -0.831 0.986 -0.831 h 19.472 c 0.487 0 0.903 0.351 0.985 0.831 l 1.873 10.923 c 0.05 0.29 -0.031 0.588 -0.221 0.813 C 57.184 84.171 56.904 84.301 56.609 84.301 z M 34.577 82.301 h 20.846 l -1.529 -8.923 H 36.107 L 34.577 82.301 z" style="stroke: none; stroke-width: 1; stroke-dasharray: none; stroke-linecap: butt; stroke-linejoin: miter; stroke-miterlimit: 10; fill: rgb(0,0,0); fill-rule: nonzero; opacity: 1;" transform=" matrix(1 0 0 1 0 0) " stroke-linecap="round" />
	<path d="M 62.335 90 H 27.666 c -0.552 0 -1 -0.447 -1 -1 v -5.699 c 0 -0.553 0.448 -1 1 -1 h 34.669 c 0.553 0 1 0.447 1 1 V 89 C 63.335 89.553 62.888 90 62.335 90 z M 28.666 88 h 32.669 v -3.699 H 28.666 V 88 z" style="stroke: none; stroke-width: 1; stroke-dasharray: none; stroke-linecap: butt; stroke-linejoin: miter; stroke-miterlimit: 10; fill: rgb(0,0,0); fill-rule: nonzero; opacity: 1;" transform=" matrix(1 0 0 1 0 0) " stroke-linecap="round" />
	<path d="M 69.734 39.885 c -0.735 0 -1.393 -0.423 -1.731 -1.075 c -0.067 -0.13 -0.138 -0.259 -0.212 -0.387 c -0.074 -0.128 -0.151 -0.254 -0.23 -0.377 c -0.396 -0.619 -0.433 -1.4 -0.066 -2.036 c 0.534 -0.924 0.217 -2.106 -0.707 -2.639 l -2.559 -1.477 c -0.924 -0.534 -2.106 -0.217 -2.639 0.707 L 61.59 32.6 c -0.362 0.627 -1.044 0.996 -1.767 0.961 c -0.314 -0.015 -0.63 -0.015 -0.945 0 c -0.722 0.035 -1.402 -0.335 -1.763 -0.961 l 0 -0.001 c -0.534 -0.924 -1.715 -1.241 -2.639 -0.707 l -2.559 1.478 c -0.924 0.534 -1.241 1.715 -0.707 2.639 l 0 0.001 c 0.361 0.626 0.342 1.4 -0.049 2.007 c -0.171 0.266 -0.329 0.539 -0.473 0.819 c -0.331 0.644 -0.992 1.049 -1.715 1.049 h -0.001 c -1.067 0 -1.932 0.865 -1.932 1.932 v 2.955 c 0 1.067 0.865 1.932 1.932 1.932 l 0 0 c 0.735 0 1.393 0.423 1.731 1.075 c 0.067 0.13 0.138 0.259 0.212 0.387 c 0.074 0.128 0.151 0.254 0.23 0.377 c 0.396 0.618 0.433 1.4 0.066 2.036 c -0.534 0.924 -0.217 2.106 0.707 2.639 l 2.559 1.477 c 0.924 0.534 2.106 0.217 2.639 -0.707 l 0 -0.001 c 0.362 -0.627 1.044 -0.996 1.766 -0.961 c 0.314 0.015 0.63 0.015 0.945 0 c 0.722 -0.035 1.402 0.335 1.763 0.961 l 0 0.001 c 0.534 0.924 1.715 1.241 2.639 0.707 l 2.559 -1.477 c 0.924 -0.533 1.241 -1.715 0.707 -2.639 l 0 -0.001 c -0.361 -0.626 -0.342 -1.4 0.049 -2.007 c 0.171 -0.266 0.329 -0.539 0.473 -0.819 c 0.331 -0.644 0.992 -1.049 1.716 -1.049 h 0.001 c 1.067 0 1.932 -0.865 1.932 -1.932 v -2.955 C 71.666 40.75 70.801 39.885 69.734 39.885 z M 59.353 47.738 c -2.454 0 -4.444 -1.99 -4.444 -4.444 c 0 -2.454 1.99 -4.444 4.444 -4.444 s 4.444 1.99 4.444 4.444 C 63.797 45.749 61.807 47.738 59.353 47.738 z" style="stroke: none; stroke-width: 1; stroke-dasharray: none; stroke-linecap: butt; stroke-linejoin: miter; stroke-miterlimit: 10; fill: rgb(255,199,41); fill-rule: nonzero; opacity: 1;" transform=" matrix(1 0 0 1 0 0) " stroke-linecap="round" />
	<path d="M 63.269 55.956 c -0.255 0 -0.511 -0.033 -0.764 -0.101 c -0.757 -0.203 -1.389 -0.688 -1.78 -1.366 c -0.175 -0.303 -0.501 -0.484 -0.849 -0.463 c -0.349 0.019 -0.697 0.019 -1.044 0 c -0.351 -0.021 -0.676 0.159 -0.851 0.462 c -0.81 1.399 -2.606 1.882 -4.006 1.074 l -2.559 -1.478 c -0.679 -0.392 -1.164 -1.023 -1.366 -1.78 c -0.203 -0.757 -0.099 -1.547 0.294 -2.226 c 0.174 -0.301 0.157 -0.684 -0.043 -0.997 c -0.087 -0.134 -0.171 -0.273 -0.253 -0.414 c -0.083 -0.146 -0.16 -0.286 -0.234 -0.428 c -0.171 -0.332 -0.493 -0.536 -0.843 -0.536 c -1.616 0 -2.932 -1.315 -2.932 -2.932 v -2.955 c 0 -1.617 1.315 -2.932 2.932 -2.932 c 0.35 0 0.667 -0.194 0.827 -0.506 c 0.159 -0.309 0.333 -0.611 0.522 -0.905 c 0.188 -0.292 0.197 -0.662 0.022 -0.964 c -0.392 -0.678 -0.496 -1.468 -0.293 -2.225 c 0.202 -0.756 0.688 -1.389 1.366 -1.781 l 2.559 -1.478 c 1.397 -0.807 3.197 -0.327 4.006 1.073 c 0.175 0.303 0.498 0.487 0.848 0.463 c 0.352 -0.017 0.698 -0.016 1.044 0.001 c 0.367 0.004 0.676 -0.161 0.851 -0.462 c 0.393 -0.679 1.024 -1.165 1.781 -1.367 c 0.753 -0.203 1.547 -0.099 2.225 0.293 l 2.56 1.477 c 1.399 0.809 1.881 2.605 1.073 4.005 c -0.175 0.303 -0.159 0.685 0.041 0.997 c 0.087 0.135 0.171 0.273 0.253 0.415 c 0.083 0.144 0.16 0.286 0.235 0.431 c 0.17 0.329 0.492 0.534 0.842 0.534 c 1.617 0 2.933 1.315 2.933 2.932 v 2.955 c 0 1.617 -1.315 2.932 -2.933 2.932 c -0.35 0 -0.666 0.193 -0.826 0.505 c -0.16 0.311 -0.333 0.61 -0.521 0.903 c -0.19 0.296 -0.2 0.665 -0.025 0.966 c 0.392 0.68 0.496 1.47 0.294 2.227 c -0.203 0.756 -0.688 1.389 -1.366 1.78 l -2.56 1.478 C 64.277 55.823 63.776 55.956 63.269 55.956 z M 55.439 32.634 c -0.158 0 -0.317 0.04 -0.464 0.125 l -2.559 1.478 c -0.216 0.125 -0.37 0.325 -0.435 0.566 c -0.064 0.24 -0.031 0.491 0.093 0.707 c 0.551 0.955 0.522 2.123 -0.073 3.05 c -0.155 0.24 -0.296 0.484 -0.424 0.734 c -0.505 0.982 -1.503 1.592 -2.605 1.592 c -0.515 0 -0.933 0.418 -0.933 0.932 v 2.955 c 0 0.514 0.418 0.932 0.932 0.932 c 1.102 0 2.104 0.619 2.619 1.617 c 0.06 0.115 0.125 0.232 0.191 0.348 c 0.063 0.11 0.132 0.223 0.202 0.333 c 0.606 0.946 0.641 2.125 0.092 3.078 c -0.125 0.216 -0.158 0.467 -0.094 0.707 s 0.219 0.441 0.434 0.565 l 2.56 1.478 c 0.446 0.26 1.017 0.102 1.274 -0.342 c 0.549 -0.953 1.566 -1.503 2.681 -1.46 c 0.281 0.015 0.564 0.015 0.847 0 c 1.119 -0.042 2.127 0.506 2.679 1.459 c 0.258 0.447 0.828 0.6 1.273 0.343 l 2.56 -1.478 c 0.216 -0.124 0.369 -0.325 0.434 -0.565 s 0.032 -0.491 -0.093 -0.707 c -0.552 -0.953 -0.523 -2.122 0.074 -3.05 c 0.153 -0.238 0.295 -0.483 0.425 -0.735 c 0.503 -0.98 1.501 -1.591 2.604 -1.591 c 0.515 0 0.934 -0.418 0.934 -0.932 v -2.955 c 0 -0.514 -0.418 -0.932 -0.933 -0.932 c -1.101 0 -2.104 -0.619 -2.619 -1.616 c -0.06 -0.116 -0.123 -0.231 -0.189 -0.346 c -0.065 -0.113 -0.134 -0.227 -0.204 -0.337 c -0.606 -0.945 -0.641 -2.124 -0.091 -3.077 c 0.257 -0.445 0.104 -1.016 -0.341 -1.273 l -2.56 -1.477 c -0.216 -0.125 -0.467 -0.158 -0.707 -0.094 s -0.441 0.219 -0.565 0.434 c -0.552 0.955 -1.561 1.512 -2.683 1.461 c -0.281 -0.016 -0.565 -0.015 -0.849 0 c -1.118 0.042 -2.125 -0.506 -2.677 -1.46 C 56.076 32.801 55.762 32.634 55.439 32.634 z" style="stroke: none; stroke-width: 1; stroke-dasharray: none; stroke-linecap: butt; stroke-linejoin: miter; stroke-miterlimit: 10; fill: rgb(0,0,0); fill-rule: nonzero; opacity: 1;" transform=" matrix(1 0 0 1 0 0) " stroke-linecap="round" />
	<path d="M 59.353 48.738 c -3.002 0 -5.443 -2.442 -5.443 -5.444 c 0 -3.002 2.441 -5.444 5.443 -5.444 s 5.444 2.442 5.444 5.444 C 64.797 46.296 62.354 48.738 59.353 48.738 z M 59.353 39.851 c -1.898 0 -3.443 1.545 -3.443 3.444 s 1.545 3.444 3.443 3.444 c 1.899 0 3.444 -1.545 3.444 -3.444 S 61.252 39.851 59.353 39.851 z" style="stroke: none; stroke-width: 1; stroke-dasharray: none; stroke-linecap: butt; stroke-linejoin: miter; stroke-miterlimit: 10; fill: rgb(0,0,0); fill-rule: nonzero; opacity: 1;" transform=" matrix(1 0 0 1 0 0) " stroke-linecap="round" />
	<path d="M 36.311 15.62 c 0 -5.156 -4.342 -9.298 -9.568 -8.97 c -4.445 0.279 -8.071 3.875 -8.385 8.318 c -0.22 3.121 1.155 5.933 3.392 7.703 c 1.264 1 2.029 2.501 2.029 4.113 V 29.4 c 0 0.454 0.368 0.822 0.822 0.822 h 5.444 c 0.454 0 0.822 -0.368 0.822 -0.822 l 0 -2.617 c 0 -1.584 0.716 -3.091 1.966 -4.063 C 34.949 21.075 36.311 18.507 36.311 15.62 z" style="stroke: none; stroke-width: 1; stroke-dasharray: none; stroke-linecap: butt; stroke-linejoin: miter; stroke-miterlimit: 10; fill: rgb(255,199,41); fill-rule: nonzero; opacity: 1;" transform=" matrix(1 0 0 1 0 0) " stroke-linecap="round" />
	<path d="M 23.778 26.998 V 29.4 c 0 0.454 0.368 0.822 0.822 0.822 h 0.057 v 1.971 c 0 0.822 0.666 1.488 1.488 1.488 H 28.5 c 0.822 0 1.488 -0.666 1.488 -1.488 v -1.971 h 0.057 c 0.454 0 0.822 -0.368 0.822 -0.822 v -2.402 H 23.778 z" style="stroke: none; stroke-width: 1; stroke-dasharray: none; stroke-linecap: butt; stroke-linejoin: miter; stroke-miterlimit: 10; fill: rgb(233,238,242); fill-rule: nonzero; opacity: 1;" transform=" matrix(1 0 0 1 0 0) " stroke-linecap="round" />
	<path d="M 28.5 34.681 h -2.354 c -1.372 0 -2.488 -1.116 -2.488 -2.488 v -1.971 c 0 -0.552 0.448 -1 1 -1 s 1 0.448 1 1 v 1.971 c 0 0.269 0.219 0.488 0.488 0.488 H 28.5 c 0.269 0 0.488 -0.219 0.488 -0.488 v -1.971 c 0 -0.552 0.448 -1 1 -1 s 1 0.448 1 1 v 1.971 C 30.988 33.565 29.872 34.681 28.5 34.681 z" style="stroke: none; stroke-width: 1; stroke-dasharray: none; stroke-linecap: butt; stroke-linejoin: miter; stroke-miterlimit: 10; fill: rgb(0,0,0); fill-rule: nonzero; opacity: 1;" transform=" matrix(1 0 0 1 0 0) " stroke-linecap="round" />
	<path d="M 30.867 27.998 h -7.088 c -0.552 0 -1 -0.448 -1 -1 v -0.214 c 0 -1.286 -0.602 -2.5 -1.65 -3.329 l 0 0 c -2.593 -2.052 -4.002 -5.251 -3.769 -8.558 c 0.35 -4.959 4.356 -8.934 9.32 -9.246 c 2.789 -0.171 5.448 0.779 7.479 2.687 c 2.003 1.881 3.152 4.535 3.152 7.282 c 0 3.106 -1.408 5.981 -3.864 7.89 c -0.99 0.769 -1.581 1.992 -1.581 3.273 v 0.215 C 31.867 27.55 31.419 27.998 30.867 27.998 z M 24.728 25.998 h 5.189 c 0.206 -1.601 1.035 -3.083 2.303 -4.067 c 1.964 -1.526 3.091 -3.827 3.091 -6.311 c 0 -2.229 -0.895 -4.297 -2.521 -5.824 c -1.625 -1.525 -3.755 -2.287 -5.985 -2.148 c -3.967 0.25 -7.17 3.426 -7.45 7.39 c -0.187 2.646 0.94 5.207 3.015 6.849 l 0 0 C 23.688 22.929 24.521 24.396 24.728 25.998 z" style="stroke: none; stroke-width: 1; stroke-dasharray: none; stroke-linecap: butt; stroke-linejoin: miter; stroke-miterlimit: 10; fill: rgb(0,0,0); fill-rule: nonzero; opacity: 1;" transform=" matrix(1 0 0 1 0 0) " stroke-linecap="round" />
	<path d="M 30.045 31.222 c -0.552 0 -1 -0.448 -1 -1 c 0 -0.491 0.354 -0.9 0.822 -0.984 v -1.24 h -5.088 v 1.24 c 0.467 0.084 0.822 0.493 0.822 0.984 c 0 0.552 -0.448 1 -1 1 c -1.005 0 -1.822 -0.817 -1.822 -1.822 v -2.402 c 0 -0.552 0.448 -1 1 -1 h 7.088 c 0.552 0 1 0.448 1 1 V 29.4 C 31.867 30.404 31.049 31.222 30.045 31.222 z" style="stroke: none; stroke-width: 1; stroke-dasharray: none; stroke-linecap: butt; stroke-linejoin: miter; stroke-miterlimit: 10; fill: rgb(0,0,0); fill-rule: nonzero; opacity: 1;" transform=" matrix(1 0 0 1 0 0) " stroke-linecap="round" />
	<path d="M 42.03 44.294 H 27.323 c -0.552 0 -1 -0.448 -1 -1 v -5.329 c 0 -0.552 0.448 -1 1 -1 s 1 0.448 1 1 v 4.329 H 42.03 c 0.552 0 1 0.448 1 1 S 42.583 44.294 42.03 44.294 z" style="stroke: none; stroke-width: 1; stroke-dasharray: none; stroke-linecap: butt; stroke-linejoin: miter; stroke-miterlimit: 10; fill: rgb(0,0,0); fill-rule: nonzero; opacity: 1;" transform=" matrix(1 0 0 1 0 0) " stroke-linecap="round" />
	<path d="M 18.334 55.956 c -0.552 0 -1 -0.447 -1 -1 v -6.543 c 0 -0.553 0.448 -1 1 -1 H 42.03 c 0.552 0 1 0.447 1 1 s -0.448 1 -1 1 H 19.334 v 5.543 C 19.334 55.509 18.887 55.956 18.334 55.956 z" style="stroke: none; stroke-width: 1; stroke-dasharray: none; stroke-linecap: butt; stroke-linejoin: miter; stroke-miterlimit: 10; fill: rgb(0,0,0); fill-rule: nonzero; opacity: 1;" transform=" matrix(1 0 0 1 0 0) " stroke-linecap="round" />
	<path d="M 42.03 38.966 h -4.644 c -0.552 0 -1 -0.448 -1 -1 s 0.448 -1 1 -1 h 4.644 c 0.552 0 1 0.448 1 1 S 42.583 38.966 42.03 38.966 z" style="stroke: none; stroke-width: 1; stroke-dasharray: none; stroke-linecap: butt; stroke-linejoin: miter; stroke-miterlimit: 10; fill: rgb(0,0,0); fill-rule: nonzero; opacity: 1;" transform=" matrix(1 0 0 1 0 0) " stroke-linecap="round" />
	<rect x="42.53" y="1" rx="0" ry="0" width="29.33" height="19.97" style="stroke: none; stroke-width: 1; stroke-dasharray: none; stroke-linecap: butt; stroke-linejoin: miter; stroke-miterlimit: 10; fill: rgb(201,207,212); fill-rule: nonzero; opacity: 1;" transform=" matrix(1 0 0 1 0 0) "/>
	<path d="M 71.854 21.97 H 42.525 c -0.552 0 -1 -0.448 -1 -1 V 1 c 0 -0.552 0.448 -1 1 -1 h 29.328 c 0.553 0 1 0.448 1 1 v 19.97 C 72.854 21.522 72.406 21.97 71.854 21.97 z M 43.525 19.97 h 27.328 V 2 H 43.525 V 19.97 z" style="stroke: none; stroke-width: 1; stroke-dasharray: none; stroke-linecap: butt; stroke-linejoin: miter; stroke-miterlimit: 10; fill: rgb(0,0,0); fill-rule: nonzero; opacity: 1;" transform=" matrix(1 0 0 1 0 0) " stroke-linecap="round" />
	<path d="M 58.885 6.774 H 47.074 c -0.553 0 -1 -0.448 -1 -1 s 0.447 -1 1 -1 h 11.811 c 0.553 0 1 0.448 1 1 S 59.438 6.774 58.885 6.774 z" style="stroke: none; stroke-width: 1; stroke-dasharray: none; stroke-linecap: butt; stroke-linejoin: miter; stroke-miterlimit: 10; fill: rgb(0,0,0); fill-rule: nonzero; opacity: 1;" transform=" matrix(1 0 0 1 0 0) " stroke-linecap="round" />
	<path d="M 67.08 6.774 h -3.736 c -0.553 0 -1 -0.448 -1 -1 s 0.447 -1 1 -1 h 3.736 c 0.553 0 1 0.448 1 1 S 67.633 6.774 67.08 6.774 z" style="stroke: none; stroke-width: 1; stroke-dasharray: none; stroke-linecap: butt; stroke-linejoin: miter; stroke-miterlimit: 10; fill: rgb(0,0,0); fill-rule: nonzero; opacity: 1;" transform=" matrix(1 0 0 1 0 0) " stroke-linecap="round" />
	<path d="M 67.08 11.884 H 47.074 c -0.553 0 -1 -0.448 -1 -1 s 0.447 -1 1 -1 H 67.08 c 0.553 0 1 0.448 1 1 S 67.633 11.884 67.08 11.884 z" style="stroke: none; stroke-width: 1; stroke-dasharray: none; stroke-linecap: butt; stroke-linejoin: miter; stroke-miterlimit: 10; fill: rgb(0,0,0); fill-rule: nonzero; opacity: 1;" transform=" matrix(1 0 0 1 0 0) " stroke-linecap="round" />
	<path d="M 57.189 16.994 H 47.074 c -0.553 0 -1 -0.448 -1 -1 s 0.447 -1 1 -1 h 10.115 c 0.553 0 1 0.448 1 1 S 57.742 16.994 57.189 16.994 z" style="stroke: none; stroke-width: 1; stroke-dasharray: none; stroke-linecap: butt; stroke-linejoin: miter; stroke-miterlimit: 10; fill: rgb(0,0,0); fill-rule: nonzero; opacity: 1;" transform=" matrix(1 0 0 1 0 0) " stroke-linecap="round" />
	<path d="M 59.353 29.61 c -0.553 0 -1 -0.448 -1 -1 v -3.749 c 0 -0.552 0.447 -1 1 -1 s 1 0.448 1 1 v 3.749 C 60.353 29.162 59.905 29.61 59.353 29.61 z" style="stroke: none; stroke-width: 1; stroke-dasharray: none; stroke-linecap: butt; stroke-linejoin: miter; stroke-miterlimit: 10; fill: rgb(0,0,0); fill-rule: nonzero; opacity: 1;" transform=" matrix(1 0 0 1 0 0) " stroke-linecap="round" />
</g>
</svg>